#!OML:ASF F:\VICON\USERDATA\INSTALL\rory3\rory3.ASF
:FULLY-SPECIFIED
:DEGREES
36
root 0.7178865433886457 17.733071051381227 4.5086018856178445 -1.6698724997639265 2.2899192772222627 1.3594703618390214
lfemur 16.813252896078076 -4.642308325334965 -24.862218553779194
ltibia 23.476218114211616
lfoot -7.841806126630182 -7.143916558409305
ltoes -19.345482442141982
rfemur -29.75089995804133 4.542423070285251 20.256575187491656
rtibia 19.697063001261604
rfoot -2.1828725051841555 -8.434851362220936
rtoes -3.425318122035798
lowerback 9.640187365950359 -1.689897537481221 -3.8798627239409926
upperback 0.25638863384228955 -2.592536422656066 2.004917636832075
thorax -4.926093648061691 -1.156067388287485 4.6988586440624545
lowerneck -16.824135095549302 -2.5743938734752505 -1.9094282528418764
upperneck 21.19828383038815 -3.0800104685328957 0.10125267349941858
head 9.516125682684713 -1.5806838165001331 -0.07998343161049509
lclavicle -9.976232716789437e-16 -8.384331355018493e-16
lhumerus -23.133067817339896 -3.339742895184023 80.21080975016092
lradius 31.046487395261764
lwrist 7.911014223533119
lhand -30.809433311907725 23.28864537719314
lfingers 7.125020000000057
lthumb -4.0988011888719535 53.23137177653575
rclavicle -9.976232716789437e-16 -8.384331355018493e-16
rhumerus -39.0562050191891 -31.24269748511611 -69.19027786410902
rradius 17.621624380077385
rwrist 13.397610552482242
rhand -17.575131392756834 29.58606941084573
rfingers 7.125020000000057
rthumb 8.680452742990225 -7.231018866613309
37
root 0.6933852207183051 17.801991835933833 5.652188287586198 -2.307548951903125 2.236174196759963 0.0020345667191450367
lfemur 14.447931705445974 -4.6600593324855195 -22.731187358916213
ltibia 31.688084693710906
lfoot -0.28706621803644383 -11.323302518044791
ltoes -21.54272946207017
rfemur -28.10296862682128 4.0725206920629295 22.542165305917884
rtibia 24.220399168229896
rfoot -1.298990236488441 -6.2028828993403575
rtoes 1.8339212605189392
lowerback 9.646855504026698 -1.7641996062228635 -2.7649257315040927
upperback 0.22966155954143747 -2.548344293215795 2.44345940617368
thorax -5.0005879259044494 -1.1535986714343456 4.467842831968674
lowerneck -16.729934954951364 -2.4565706165593033 -1.8688725609865702
upperneck 21.468185808651274 -2.872376080322515 -0.1825283525491348
head 9.580446529094042 -1.5111114766633205 -0.1613599359170853
lclavicle -1.0932446342710528e-15 -9.124729763145573e-16
lhumerus -24.53807459642325 -2.249363303606826 80.54616076033211
lradius 29.88661471492087
lwrist 7.381172563142458
lhand -30.466274028578173 23.736706327564427
lfingers 7.125020000000056
lthumb -3.7674143094805013 53.679670495745874
rclavicle -1.0932446342710528e-15 -9.124729763145573e-16
rhumerus -39.77875883377836 -33.102426722888005 -67.60580593056639
rradius 15.913623152963858
rwrist 15.411292996385264
rhand -17.588568156519006 29.901169587137648
rfingers 7.125020000000056
rthumb 8.667656433043367 -7.568437831209549
38
root 0.6451593223428511 17.896965649039135 6.209218288883289 -3.0526604329869156 2.1740921899691976 -1.5395915022543423
lfemur 10.188138565968949 -4.027874648852475 -20.284594580722505
ltibia 41.913235967424555
lfoot 8.578819899356434 -15.832152734804623
ltoes -18.852962498517073
rfemur -25.91718075963826 4.0370900763407995 24.86035103600251
rtibia 26.708442800988774
rfoot -1.8530519606068383 -5.219150854364435
rtoes 7.052598013463657
lowerback 9.706265919606992 -1.7977899572334728 -1.5738702202253732
upperback 0.18936857914661115 -2.441085126832343 2.835004629015353
thorax -5.1686091680843305 -1.121559221826379 4.086381083567002
lowerneck -16.54581238934107 -2.430734317056711 -1.8182842042235292
upperneck 21.532507881164634 -2.835188731645858 -0.3386054740305169
head 9.559445033801753 -1.5027989263659238 -0.2155287727846844
lclavicle -1.4706290063360408e-15 -1.2046827767542446e-15
lhumerus -26.314962241907665 -1.8122706880451287 81.09140386063564
lradius 28.381877730762056
lwrist 6.709705382480454
lhand -29.794919567821854 24.08462300852694
lfingers 7.125020000000055
lthumb -3.11908522651735 54.03065796134223
rclavicle -1.4706290063360408e-15 -1.2046827767542446e-15
rhumerus -40.4147614145355 -34.10017736189319 -67.18485960997076
rradius 14.631219316696203
rwrist 15.786733958337216
rhand -17.537636387276873 29.545426926374585
rfingers 7.125020000000055
rthumb 8.716945277023482 -7.84049671385356
39
root 0.6136858881928141 18.00207647335961 7.141581882902119 -3.71111269840685 2.1782162376907492 -2.918474123449787
lfemur 4.625853310210665 -2.880177429768668 -17.587099608781376
ltibia 53.390175877511886
lfoot 15.633545139304594 -18.41429741260486
ltoes -12.944013675975034
rfemur -22.535870062727508 4.505218947004948 27.08359572884212
rtibia 27.759627424120964
rfoot -3.7775030013284057 -5.408538488730668
rtoes 10.709775039080165
lowerback 9.90660729183476 -1.689914716212778 -0.3728503602363311
upperback 0.21268923839626774 -2.147474664722627 3.1379035219402986
thorax -5.301405469348312 -1.0007355497593209 3.65723081730695
lowerneck -16.35968869105207 -2.5085213390192456 -1.7531883690180872
upperneck 21.55577009323639 -2.9773900276076404 -0.29567470866127277
head 9.529770443885733 -1.5603391597098364 -0.2256056162216532
lclavicle -1.4585199412554353e-15 -1.195306675532546e-15
lhumerus -27.555822934316055 -1.602987080882948 81.64445045795252
lradius 26.88435307521236
lwrist 5.807539912477392
lhand -28.927506191692697 24.645024698943708
lfingers 7.125020000000055
lthumb -2.2814327831895542 54.5945492112816
rclavicle -1.4585199412554353e-15 -1.195306675532546e-15
rhumerus -39.67186901285937 -33.51833181227994 -67.89365101151652
rradius 14.49823566973695
rwrist 14.996900481359777
rhand -17.430834203264403 29.601021504338124
rfingers 7.125020000000055
rthumb 8.820133145818522 -7.60618081075881
40
root 0.5855637048410294 18.097049694469316 7.839427051740541 -4.232212116509286 1.9386243474628517 -4.061560511106491
lfemur -1.727560625232604 -1.3708000296378748 -15.367244063344614
ltibia 63.58190298224989
lfoot 17.76566086946781 -18.384191723924
ltoes -8.173020547775405
rfemur -18.831966926744638 5.008995589349083 28.981191185442313
rtibia 27.43946998804964
rfoot -6.107706831692923 -6.06196189819711
rtoes 12.457721951501407
lowerback 10.057823455955779 -1.4458166859104251 0.6290578133896857
upperback 0.2992569619645626 -1.6998550281019127 3.2819499013888915
thorax -5.343605310870245 -0.8022560214843476 3.1423590073545147
lowerneck -16.20057500668149 -2.657143996079188 -1.70694720181967
upperneck 21.54220960873394 -3.2421656803577017 -0.1476040043855784
head 9.494350386832746 -1.662984189985452 -0.2082267585711136
lclavicle -1.5463127628694697e-15 -1.2632849211118365e-15
lhumerus -28.492014950921096 -1.6676555223357035 82.0609019928186
lradius 25.00893689344533
lwrist 4.507687394967718
lhand -28.52852554379688 24.628103614416432
lfingers 7.125020000000055
lthumb -1.8961184054526876 54.582900088818114
rclavicle -1.5463127628694697e-15 -1.2632849211118365e-15
rhumerus -38.081669689588686 -32.008179773830946 -69.68221548916206
rradius 14.576482675873883
rwrist 13.401117318347733
rhand -17.273518676454138 29.813326820125692
rfingers 7.125020000000055
rthumb 8.971867674471463 -7.113546513256634
41
root 0.5741909448920381 18.168459055270343 8.62501838775221 -4.532324542496918 1.4380022988824268 -4.818009961047874
lfemur -7.703797845811082 0.3951760411951801 -13.856818321508992
ltibia 71.75331786713903
lfoot 14.688688724248067 -16.122598546080468
ltoes -6.457898508434891
rfemur -15.26509199303351 5.5132653523859485 30.50117972720561
rtibia 27.180800764430497
rfoot -8.419694795781396 -6.659926529283713
rtoes 12.844494127692652
lowerback 10.222547951545227 -1.0525817367141457 1.4898218436913575
upperback 0.4105386577846076 -1.0735428396153734 3.2724680601000053
thorax -5.32172455273064 -0.5166441461836652 2.571952725550136
lowerneck -16.02705777542608 -2.810714348767723 -1.689603681963432
upperneck 21.608838555153966 -3.5108356160527605 0.07242481102237952
head 9.486910387023917 -1.7658087553445962 -0.16328496605058573
lclavicle -1.3807383183727292e-15 -1.135080195834005e-15
lhumerus -29.135871486927435 -1.4314220490948601 82.42582438551345
lradius 24.001717186700724
lwrist 3.665403034727957
lhand -28.490504591520942 24.38328884054427
lfingers 7.125020000000056
lthumb -1.8593696070916896 54.34343710266495
rclavicle -1.3807383183727292e-15 -1.135080195834005e-15
rhumerus -35.82206599421956 -29.602084955837057 -71.86863694909623
rradius 15.589001620726457
rwrist 11.67754470422722
rhand -17.111915195490223 30.148989558082103
rfingers 7.125020000000056
rthumb 9.12785444008204 -6.944941428515244
42
root 0.5659439004147848 18.196936633895152 8.673565086871251 -4.753681635625176 0.6335251838989664 -5.361829780177395
lfemur -13.582181895497708 1.991850156626137 -13.163242260753375
ltibia 75.88112636526104
lfoot 8.138799185330415 -12.873631500370141
ltoes -7.313117130292167
rfemur -12.412461132430668 5.827437702336297 31.53420966999352
rtibia 26.76592923546952
rfoot -11.016229853360207 -7.184423696259125
rtoes 12.355632024773518
lowerback 10.310569626347023 -0.5971139442400827 2.117355295593234
upperback 0.47885898841769386 -0.3954248945395976 3.095695375277271
thorax -5.34235505139298 -0.20154071328583234 1.8795534685594522
lowerneck -15.882483030040285 -2.95506332312642 -1.664360078378369
upperneck 21.628901527826464 -3.764462705808114 0.21128838864902466
head 9.46743997075216 -1.8631712499150308 -0.14367383723727178
lclavicle -1.6426890096938526e-15 -1.3379093699983467e-15
lhumerus -30.14906332840855 -1.0099924528420992 82.47115196558065
lradius 22.522484426525757
lwrist 3.15617167962985
lhand -28.716947065215994 23.648277143429574
lfingers 7.125020000000055
lthumb -2.078006660814887 53.61463878768235
rclavicle -1.6426890096938526e-15 -1.3379093699983467e-15
rhumerus -33.63459981877872 -27.142700117548756 -74.29413401766264
rradius 15.965629397013423
rwrist 9.770978585774461
rhand -17.095827630720176 30.0454549758131
rfingers 7.125020000000055
rthumb 9.143451806534818 -7.586282877045236
43
root 0.5713158978533692 18.199174414642737 9.312444221164325 -4.755710682486856 -0.1984320285297737 -5.753084318940111
lfemur -18.548106951765064 3.332535240085573 -12.816063456534263
ltibia 77.23434943350284
lfoot 1.597743901324487 -9.351733586912024
ltoes -8.503195672698508
rfemur -9.44880518082067 6.102082319686117 32.52242775224349
rtibia 27.058394344002707
rfoot -13.33990051065689 -7.4735735441396365
rtoes 11.88182111005059
lowerback 10.434245183248755 -0.08142610981574094 2.874829611141393
upperback 0.5087040822766242 0.37766991304760367 2.8799286294573276
thorax -5.352089862637122 0.1552006469870853 1.140325299841977
lowerneck -15.772602426159557 -3.0454697158787787 -1.6159595415956751
upperneck 21.67055288827219 -3.9247140559461644 0.328747703000009
head 9.462318941841929 -1.9243389890501428 -0.1285381937589507
lclavicle -1.4681112994636458e-15 -1.2027333292754095e-15
lhumerus -31.183033533862762 -0.1301893396211904 82.53712428019429
lradius 22.452572787587783
lwrist 3.6276667816140318
lhand -28.873190484808305 23.194712641096487
lfingers 7.125020000000055
lthumb -2.2288624034058357 53.16572721547308
rclavicle -1.4681112994636458e-15 -1.2027333292754095e-15
rhumerus -31.217363172020676 -23.976297168709994 -76.37112019124807
rradius 17.782848478067862
rwrist 7.8140920167815215
rhand -17.137166322027092 29.849790523564078
rfingers 7.125020000000055
rthumb 9.10360976433491 -8.341526969984812
